<svg viewBox="0 0 300 800" xmlns="http://www.w3.org/2000/svg">
  <defs>
    <style>
      .body-outline { fill: #1a1a1a; stroke: #404040; stroke-width: 0.5; }
      .muscle-definition { fill: none; stroke: #2a2a2a; stroke-width: 0.3; }
      .nipple { fill: #2d1a1a; }
      .areola { fill: #25 1515; stroke: none; }
      .genital-detail { fill: #1a1a1a; stroke: #404040; stroke-width: 0.4; }
      .clickable-region { fill: transparent; stroke: none; cursor: pointer; transition: all 0.2s; }
      .clickable-region:hover { fill: rgba(139, 0, 0, 0.3); stroke: #8B0000; stroke-width: 1; }
      .clickable-region.selected { fill: rgba(139, 0, 0, 0.5); stroke: #8B0000; stroke-width: 1.5; }
    </style>
  </defs>

  <!-- Medically Accurate Female Body - Front View -->
  <g class="body-outline">
    <!-- Head -->
    <ellipse cx="150" cy="45" rx="28" ry="36"/>
    <path d="M 137 77 Q 150 80, 163 77" class="muscle-definition"/> <!-- Jawline -->

    <!-- Neck (slimmer than male) -->
    <path d="M 135 81 Q 133 93, 131 105 L 169 105 Q 167 93, 165 81 Z"/>
    <path d="M 143 81 Q 141 93, 140 105" class="muscle-definition"/>
    <path d="M 157 81 Q 159 93, 160 105" class="muscle-definition"/>

    <!-- Shoulders (narrower than male) -->
    <path d="
      M 100 105
      Q 90 112, 85 122
      Q 80 132, 78 145
      L 88 150
      Q 94 145, 100 142
      Z
    "/>

    <path d="
      M 200 105
      Q 210 112, 215 122
      Q 220 132, 222 145
      L 212 150
      Q 206 145, 200 142
      Z
    "/>

    <!-- Torso with feminine hourglass shape -->
    <path d="
      M 100 105
      L 88 120
      Q 83 135, 80 150
      L 78 175
      Q 76 195, 78 215
      L 82 245
      Q 85 270, 92 295
      L 100 318
      Q 107 332, 115 340
      L 127 348
      Q 135 350, 145 348
      L 150 346
      L 155 348
      Q 165 350, 173 348
      L 185 340
      Q 193 332, 200 318
      L 208 295
      Q 215 270, 218 245
      L 222 215
      Q 224 195, 222 175
      L 220 150
      Q 217 135, 212 120
      L 200 105
      Z
    "/>

    <!-- Left Breast with natural shape and curvature -->
    <path d="
      M 100 120
      Q 92 128, 88 138
      Q 84 150, 83 162
      L 82 175
      Q 82 188, 85 200
      L 92 212
      Q 100 220, 112 224
      L 128 226
      Q 138 224, 144 218
      L 148 210
      Q 150 198, 150 185
      L 149 168
      Q 148 152, 144 140
      Q 138 128, 128 122
      L 112 118
      Z
    " class="body-outline"/>

    <!-- Right Breast with natural shape and curvature -->
    <path d="
      M 200 120
      Q 208 128, 212 138
      Q 216 150, 217 162
      L 218 175
      Q 218 188, 215 200
      L 208 212
      Q 200 220, 188 224
      L 172 226
      Q 162 224, 156 218
      L 152 210
      Q 150 198, 150 185
      L 151 168
      Q 152 152, 156 140
      Q 162 128, 172 122
      L 188 118
      Z
    " class="body-outline"/>

    <!-- Areolae -->
    <circle cx="115" cy="158" r="9" class="areola"/>
    <circle cx="185" cy="158" r="9" class="areola"/>

    <!-- Nipples -->
    <circle cx="115" cy="158" r="4" class="nipple"/>
    <circle cx="185" cy="158" r="4" class="nipple"/>

    <!-- Subtle ab definition (softer than male) -->
    <path d="M 140 230 Q 150 228, 160 230" class="muscle-definition"/>
    <path d="M 141 250 Q 150 248, 159 250" class="muscle-definition"/>

    <!-- Navel -->
    <ellipse cx="150" cy="265" rx="4" ry="3.5" class="nipple"/>

    <!-- Waist curve (narrow) -->
    <path d="M 92 245 Q 85 260, 84 278" class="muscle-definition"/>
    <path d="M 208 245 Q 215 260, 216 278" class="muscle-definition"/>

    <!-- Hip curve (wider) -->
    <path d="M 100 300 Q 95 315, 95 330" class="muscle-definition"/>
    <path d="M 200 300 Q 205 315, 205 330" class="muscle-definition"/>

    <!-- Pelvis and pubic region -->
    <path d="
      M 127 305
      Q 122 318, 120 330
      L 122 342
      L 135 345
      Q 140 342, 143 338
      L 150 335
      L 157 338
      Q 160 342, 165 345
      L 178 342
      L 180 330
      Q 178 318, 173 305
      Z
    " class="muscle-definition"/>

    <!-- Vulva (anatomically accurate) -->
    <g class="genital-detail">
      <!-- Mons pubis -->
      <path d="
        M 143 330
        Q 140 335, 139 342
        Q 138 348, 139 354
        L 141 360
        Q 144 365, 150 366
        Q 156 365, 159 360
        L 161 354
        Q 162 348, 161 342
        Q 160 335, 157 330
        Z
      "/>

      <!-- Labia majora (outer lips) -->
      <ellipse cx="146" cy="358" rx="4.5" ry="12" transform="rotate(-5 146 358)"/>
      <ellipse cx="154" cy="358" rx="4.5" ry="12" transform="rotate(5 154 358)"/>

      <!-- Vulval cleft -->
      <path d="M 150 348 Q 150 356, 150 365" class="muscle-definition"/>
    </g>

    <!-- Arms (slimmer, less muscle definition) -->
    <path d="
      M 100 115
      L 78 125
      Q 68 135, 64 152
      L 60 185
      Q 58 212, 57 238
      L 56 275
      Q 55 305, 54 332
      L 53 365
      Q 52 388, 51 405
      L 59 408
      L 61 390
      Q 62 368, 63 342
      L 64 305
      Q 65 273, 67 242
      L 70 205
      Q 72 178, 76 158
      L 85 135
      L 95 122
      Z
    "/>

    <path d="
      M 200 115
      L 222 125
      Q 232 135, 236 152
      L 240 185
      Q 242 212, 243 238
      L 244 275
      Q 245 305, 246 332
      L 247 365
      Q 248 388, 249 405
      L 241 408
      L 239 390
      Q 238 368, 237 342
      L 236 305
      Q 235 273, 233 242
      L 230 205
      Q 228 178, 224 158
      L 215 135
      L 205 122
      Z
    "/>

    <!-- Minimal bicep curve -->
    <path d="M 72 148 Q 68 158, 67 170" class="muscle-definition"/>
    <path d="M 228 148 Q 232 158, 233 170" class="muscle-definition"/>

    <!-- Legs with feminine shape -->
    <path d="
      M 127 348
      L 124 385
      Q 122 420, 120 455
      L 118 500
      Q 116 545, 114 588
      L 112 638
      Q 110 685, 108 728
      L 106 765
      L 104 773
      L 111 773
      L 118 773
      L 120 765
      Q 122 728, 124 688
      L 126 643
      Q 128 598, 130 553
      L 132 505
      Q 134 465, 136 425
      L 138 385
      L 140 348
      Z
    "/>

    <path d="
      M 173 348
      L 176 385
      Q 178 420, 180 455
      L 182 500
      Q 184 545, 186 588
      L 188 638
      Q 190 685, 192 728
      L 194 765
      L 196 773
      L 189 773
      L 182 773
      L 180 765
      Q 178 728, 176 688
      L 174 643
      Q 172 598, 170 553
      L 168 505
      Q 166 465, 164 425
      L 162 385
      L 160 348
      Z
    "/>

    <!-- Knee definition (subtle) -->
    <ellipse cx="115" cy="595" rx="9" ry="7" class="muscle-definition"/>
    <ellipse cx="185" cy="595" rx="9" ry="7" class="muscle-definition"/>

    <!-- Calf curve (softer than male) -->
    <path d="M 116 610 Q 112 645, 110 680" class="muscle-definition"/>
    <path d="M 184 610 Q 188 645, 190 680" class="muscle-definition"/>

    <!-- Ankle -->
    <path d="M 108 750 Q 106 758, 105 766" class="muscle-definition"/>
    <path d="M 192 750 Q 194 758, 195 766" class="muscle-definition"/>
  </g>

  <!-- Clickable Placement Regions (same IDs for functionality) -->
  <g class="clickable-regions">
    <path id="neck-front" class="clickable-region" d="M 133 81 L 131 105 L 169 105 L 167 81 Z"/>
    <rect id="upper-chest" class="clickable-region" x="115" y="105" width="70" height="25"/>
    <rect id="sternum" class="clickable-region" x="138" y="115" width="24" height="50"/>
    <path id="left-upper-chest" class="clickable-region" d="M 100 115 Q 90 125, 90 140 L 90 160 Q 93 165, 105 163 L 135 160 Q 140 155, 140 140 L 140 120 Q 125 115, 110 115 Z"/>
    <path id="right-upper-chest" class="clickable-region" d="M 200 115 Q 210 125, 210 140 L 210 160 Q 207 165, 195 163 L 165 160 Q 160 155, 160 140 L 160 120 Q 175 115, 190 115 Z"/>
    <rect id="lower-chest" class="clickable-region" x="115" y="165" width="70" height="25"/>
    <path id="left-outer-bicep" class="clickable-region" d="M 78 125 L 67 145 L 63 175 L 70 175 L 74 145 L 86 125 Z"/>
    <path id="right-outer-bicep" class="clickable-region" d="M 222 125 L 233 145 L 237 175 L 230 175 L 226 145 L 214 125 Z"/>
    <path id="left-inner-bicep" class="clickable-region" d="M 86 125 L 92 145 L 94 175 L 87 175 L 82 145 L 77 125 Z"/>
    <path id="right-inner-bicep" class="clickable-region" d="M 214 125 L 208 145 L 206 175 L 213 175 L 218 145 L 223 125 Z"/>
    <path id="left-outer-forearm" class="clickable-region" d="M 62 185 L 57 235 L 54 285 L 61 285 L 64 235 L 69 185 Z"/>
    <path id="right-outer-forearm" class="clickable-region" d="M 238 185 L 243 235 L 246 285 L 239 285 L 236 235 L 231 185 Z"/>
    <path id="left-inner-forearm" class="clickable-region" d="M 69 185 L 74 235 L 77 285 L 70 285 L 67 235 L 64 185 Z"/>
    <path id="right-inner-forearm" class="clickable-region" d="M 231 185 L 226 235 L 223 285 L 230 285 L 233 235 L 236 185 Z"/>
    <rect id="left-wrist-outer" class="clickable-region" x="50" y="295" width="10" height="30"/>
    <rect id="right-wrist-outer" class="clickable-region" x="240" y="295" width="10" height="30"/>
    <rect id="left-wrist-inner" class="clickable-region" x="60" y="295" width="10" height="30"/>
    <rect id="right-wrist-inner" class="clickable-region" x="230" y="295" width="10" height="30"/>
    <path id="left-hand" class="clickable-region" d="M 45 335 L 45 395 L 63 395 L 63 335 Z"/>
    <path id="right-hand" class="clickable-region" d="M 237 335 L 237 395 L 255 395 L 255 335 Z"/>
    <rect id="left-ribs" class="clickable-region" x="87" y="195" width="25" height="55"/>
    <rect id="right-ribs" class="clickable-region" x="188" y="195" width="25" height="55"/>
    <rect id="left-hip" class="clickable-region" x="92" y="260" width="25" height="55"/>
    <rect id="right-hip" class="clickable-region" x="183" y="260" width="25" height="55"/>
    <path id="left-outer-thigh" class="clickable-region" d="M 109 330 L 105 420 L 103 490 L 110 490 L 114 420 L 118 330 Z"/>
    <path id="right-outer-thigh" class="clickable-region" d="M 191 330 L 195 420 L 197 490 L 190 490 L 186 420 L 182 330 Z"/>
    <path id="left-inner-thigh" class="clickable-region" d="M 118 330 L 122 420 L 124 490 L 117 490 L 113 420 L 109 330 Z"/>
    <path id="right-inner-thigh" class="clickable-region" d="M 182 330 L 178 420 L 176 490 L 183 490 L 187 420 L 191 330 Z"/>
    <path id="left-front-thigh" class="clickable-region" d="M 112 340 L 110 430 L 108 500 L 115 500 L 117 430 L 119 340 Z"/>
    <path id="right-front-thigh" class="clickable-region" d="M 188 340 L 190 430 L 192 500 L 185 500 L 183 430 L 181 340 Z"/>
    <path id="left-outer-calf" class="clickable-region" d="M 103 520 L 101 630 L 97 720 L 104 720 L 108 630 L 110 520 Z"/>
    <path id="right-outer-calf" class="clickable-region" d="M 197 520 L 199 630 L 203 720 L 196 720 L 192 630 L 190 520 Z"/>
    <path id="left-inner-calf" class="clickable-region" d="M 110 520 L 112 630 L 114 720 L 107 720 L 105 630 L 103 520 Z"/>
    <path id="right-inner-calf" class="clickable-region" d="M 190 520 L 188 630 L 186 720 L 193 720 L 195 630 L 197 520 Z"/>
    <rect id="left-ankle-outer" class="clickable-region" x="95" y="740" width="10" height="25"/>
    <rect id="right-ankle-outer" class="clickable-region" x="195" y="740" width="10" height="25"/>
    <rect id="left-ankle-inner" class="clickable-region" x="105" y="740" width="10" height="25"/>
    <rect id="right-ankle-inner" class="clickable-region" x="185" y="740" width="10" height="25"/>
  </g>
</svg>
