<svg viewBox="0 0 300 800" xmlns="http://www.w3.org/2000/svg">
  <defs>
    <style>
      .body-outline { fill: #1a1a1a; stroke: #404040; stroke-width: 0.5; }
      .muscle-definition { fill: none; stroke: #2a2a2a; stroke-width: 0.3; }
      .clickable-region { fill: transparent; stroke: none; cursor: pointer; transition: all 0.2s; }
      .clickable-region:hover { fill: rgba(139, 0, 0, 0.3); stroke: #8B0000; stroke-width: 1; }
      .clickable-region.selected { fill: rgba(139, 0, 0, 0.5); stroke: #8B0000; stroke-width: 1.5; }
    </style>
  </defs>

  <!-- Medically Accurate Female Body - Back View -->
  <g class="body-outline">
    <!-- Head -->
    <ellipse cx="150" cy="45" rx="28" ry="36"/>

    <!-- Neck (slimmer) -->
    <path d="M 137 81 Q 135 93, 133 105 L 167 105 Q 165 93, 163 81 Z"/>
    <path d="M 145 81 Q 143 93, 142 105" class="muscle-definition"/>
    <path d="M 155 81 Q 157 93, 158 105" class="muscle-definition"/>

    <!-- Trapezius (softer than male) -->
    <path d="M 100 105 Q 90 113, 87 125 L 83 142 L 93 147 Q 102 143, 109 140 Z" class="body-outline"/>
    <path d="M 200 105 Q 210 113, 213 125 L 217 142 L 207 147 Q 198 143, 191 140 Z" class="body-outline"/>

    <!-- Upper back with feminine proportions -->
    <path d="
      M 100 105
      L 87 125
      L 83 148
      Q 80 168, 80 188
      L 82 218
      Q 84 245, 88 272
      L 95 300
      L 102 322
      L 118 340
      Q 125 345, 135 348
      L 145 349
      L 150 348
      L 155 349
      L 165 348
      Q 175 345, 182 340
      L 198 322
      L 205 300
      L 212 272
      Q 216 245, 218 218
      L 220 188
      Q 220 168, 217 148
      L 213 125
      L 200 105
      Z
    "/>

    <!-- Shoulder blades (softer definition) -->
    <path d="
      M 103 128
      Q 95 135, 91 145
      L 88 162
      Q 87 176, 89 189
      L 95 202
      Q 103 209, 115 212
      L 128 212
      Q 135 209, 138 202
      L 141 182
      Q 141 166, 137 152
      Q 131 139, 121 132
      Z
    " class="body-outline"/>

    <path d="
      M 197 128
      Q 205 135, 209 145
      L 212 162
      Q 213 176, 211 189
      L 205 202
      Q 197 209, 185 212
      L 172 212
      Q 165 209, 162 202
      L 159 182
      Q 159 166, 163 152
      Q 169 139, 179 132
      Z
    " class="body-outline"/>

    <!-- Spine and spinal erectors (subtle) -->
    <path d="M 150 105 L 150 315" class="muscle-definition"/>
    <path d="M 147 115 Q 145 185, 144 260 L 142 305" class="muscle-definition"/>
    <path d="M 153 115 Q 155 185, 156 260 L 158 305" class="muscle-definition"/>

    <!-- Latissimus dorsi (softer) -->
    <path d="M 93 175 Q 87 195, 85 220 L 83 250 Q 85 268, 90 282" class="muscle-definition"/>
    <path d="M 207 175 Q 213 195, 215 220 L 217 250 Q 215 268, 210 282" class="muscle-definition"/>

    <!-- Waist curve (feminine) -->
    <path d="M 95 255 Q 88 275, 88 295" class="muscle-definition"/>
    <path d="M 205 255 Q 212 275, 212 295" class="muscle-definition"/>

    <!-- Lower back dimples (sacral dimples) -->
    <circle cx="142" cy="310" r="2.5" class="nipple" fill="#2d1a1a"/>
    <circle cx="158" cy="310" r="2.5" class="nipple" fill="#2d1a1a"/>

    <!-- Gluteal muscles (feminine, curvier and fuller than male) -->
    <path d="
      M 118 320
      Q 112 332, 108 346
      Q 104 362, 103 378
      L 104 398
      Q 108 420, 118 435
      L 130 448
      Q 138 453, 146 454
      L 150 452
      Q 150 442, 150 428
      L 149 405
      Q 147 382, 144 362
      Q 140 342, 135 328
      L 127 318
      Z
    " class="body-outline"/> <!-- Left glute (more prominent) -->

    <path d="
      M 182 320
      Q 188 332, 192 346
      Q 196 362, 197 378
      L 196 398
      Q 192 420, 182 435
      L 170 448
      Q 162 453, 154 454
      L 150 452
      Q 150 442, 150 428
      L 151 405
      Q 153 382, 156 362
      Q 160 342, 165 328
      L 173 318
      Z
    " class="body-outline"/> <!-- Right glute (more prominent) -->

    <!-- Gluteal cleft -->
    <path d="M 150 315 Q 150 355, 150 400 Q 150 425, 150 440" class="muscle-definition"/>

    <!-- Intergluteal fold -->
    <path d="M 130 448 Q 140 453, 150 454 Q 160 453, 170 448" class="muscle-definition"/>

    <!-- Arms (slimmer) -->
    <path d="
      M 100 115
      L 78 125
      Q 68 135, 64 152
      L 60 185
      Q 58 212, 57 238
      L 56 275
      Q 55 305, 54 332
      L 53 365
      Q 52 388, 51 405
      L 59 408
      L 61 390
      Q 62 368, 63 342
      L 64 305
      Q 65 273, 67 242
      L 70 205
      Q 72 178, 76 158
      L 85 135
      L 95 122
      Z
    "/>

    <path d="
      M 200 115
      L 222 125
      Q 232 135, 236 152
      L 240 185
      Q 242 212, 243 238
      L 244 275
      Q 245 305, 246 332
      L 247 365
      Q 248 388, 249 405
      L 241 408
      L 239 390
      Q 238 368, 237 342
      L 236 305
      Q 235 273, 233 242
      L 230 205
      Q 228 178, 224 158
      L 215 135
      L 205 122
      Z
    "/>

    <!-- Triceps (minimal definition) -->
    <path d="M 80 148 Q 75 158, 73 172" class="muscle-definition"/>
    <path d="M 220 148 Q 225 158, 227 172" class="muscle-definition"/>

    <!-- Legs with feminine curves -->
    <path d="
      M 130 448
      L 128 475
      Q 126 505, 124 535
      L 122 578
      Q 120 618, 118 656
      L 116 700
      Q 114 738, 112 765
      L 110 773
      L 117 773
      L 124 773
      L 126 765
      Q 128 735, 130 705
      L 132 665
      Q 134 625, 136 585
      L 138 540
      Q 140 500, 142 465
      L 144 448
      Z
    "/>

    <path d="
      M 170 448
      L 172 475
      Q 174 505, 176 535
      L 178 578
      Q 180 618, 182 656
      L 184 700
      Q 186 738, 188 765
      L 190 773
      L 183 773
      L 176 773
      L 174 765
      Q 172 735, 170 705
      L 168 665
      Q 166 625, 164 585
      L 162 540
      Q 160 500, 158 465
      L 156 448
      Z
    "/>

    <!-- Hamstring (softer) -->
    <path d="M 134 470 Q 132 520, 130 565" class="muscle-definition"/>
    <path d="M 166 470 Q 168 520, 170 565" class="muscle-definition"/>

    <!-- Calf curve -->
    <path d="M 120 595 Q 116 635, 114 675" class="muscle-definition"/>
    <path d="M 180 595 Q 184 635, 186 675" class="muscle-definition"/>

    <!-- Achilles tendon -->
    <path d="M 115 750 Q 113 758, 112 766" class="muscle-definition"/>
    <path d="M 185 750 Q 187 758, 188 766" class="muscle-definition"/>
  </g>

  <!-- Clickable Placement Regions (same IDs for functionality) -->
  <g class="clickable-regions">
    <path id="neck-back" class="clickable-region" d="M 135 81 L 133 105 L 167 105 L 165 81 Z"/>
    <path id="left-shoulder" class="clickable-region" d="M 90 105 Q 85 110, 83 120 L 80 140 Q 82 145, 90 145 L 100 140 L 100 115 Q 95 108, 90 105 Z"/>
    <path id="right-shoulder" class="clickable-region" d="M 210 105 Q 215 110, 217 120 L 220 140 Q 218 145, 210 145 L 200 140 L 200 115 Q 205 108, 210 105 Z"/>
    <path id="left-shoulder-blade" class="clickable-region" d="M 100 130 Q 93 135, 90 145 L 87 165 Q 90 175, 100 178 L 120 180 Q 125 175, 127 165 L 125 145 Q 120 135, 113 132 Z"/>
    <path id="right-shoulder-blade" class="clickable-region" d="M 200 130 Q 207 135, 210 145 L 213 165 Q 210 175, 200 178 L 180 180 Q 175 175, 173 165 L 175 145 Q 180 135, 187 132 Z"/>
    <rect id="upper-back" class="clickable-region" x="128" y="105" width="44" height="40"/>
    <rect id="upper-spine" class="clickable-region" x="142" y="110" width="16" height="35"/>
    <rect id="mid-back" class="clickable-region" x="128" y="180" width="44" height="50"/>
    <rect id="mid-spine" class="clickable-region" x="142" y="185" width="16" height="45"/>
    <rect id="lower-back" class="clickable-region" x="128" y="235" width="44" height="50"/>
    <rect id="lower-spine" class="clickable-region" x="142" y="240" width="16" height="45"/>
    <path id="left-upper-arm-back" class="clickable-region" d="M 77 125 L 67 145 L 63 175 L 70 175 L 74 145 L 84 125 Z"/>
    <path id="right-upper-arm-back" class="clickable-region" d="M 223 125 L 233 145 L 237 175 L 230 175 L 226 145 L 216 125 Z"/>
    <path id="left-tricep" class="clickable-region" d="M 84 125 L 77 145 L 75 175 L 82 175 L 86 145 L 91 125 Z"/>
    <path id="right-tricep" class="clickable-region" d="M 216 125 L 223 145 L 225 175 L 218 175 L 214 145 L 209 125 Z"/>
    <path id="left-forearm-back" class="clickable-region" d="M 62 185 L 57 235 L 54 285 L 61 285 L 64 235 L 69 185 Z"/>
    <path id="right-forearm-back" class="clickable-region" d="M 238 185 L 243 235 L 246 285 L 239 285 L 236 235 L 231 185 Z"/>
    <rect id="left-wrist-back-outer" class="clickable-region" x="50" y="295" width="10" height="30"/>
    <rect id="right-wrist-back-outer" class="clickable-region" x="240" y="295" width="10" height="30"/>
    <rect id="left-wrist-back-inner" class="clickable-region" x="60" y="295" width="10" height="30"/>
    <rect id="right-wrist-back-inner" class="clickable-region" x="230" y="295" width="10" height="30"/>
    <path id="left-hand-back" class="clickable-region" d="M 45 335 L 45 395 L 63 395 L 63 335 Z"/>
    <path id="right-hand-back" class="clickable-region" d="M 237 335 L 237 395 L 255 395 L 255 335 Z"/>
    <rect id="left-lat" class="clickable-region" x="87" y="155" width="25" height="55"/>
    <rect id="right-lat" class="clickable-region" x="188" y="155" width="25" height="55"/>
    <rect id="left-hip-back" class="clickable-region" x="92" y="265" width="25" height="50"/>
    <rect id="right-hip-back" class="clickable-region" x="183" y="265" width="25" height="50"/>
    <path id="left-glute" class="clickable-region" d="M 102 285 Q 95 295, 94 310 L 95 330 Q 99 335, 107 335 L 125 333 Q 127 325, 126 310 L 123 295 Q 119 288, 112 285 Z"/>
    <path id="right-glute" class="clickable-region" d="M 198 285 Q 205 295, 206 310 L 205 330 Q 201 335, 193 335 L 175 333 Q 173 325, 174 310 L 177 295 Q 181 288, 188 285 Z"/>
    <path id="left-outer-thigh-back" class="clickable-region" d="M 109 340 L 105 430 L 103 500 L 110 500 L 114 430 L 118 340 Z"/>
    <path id="right-outer-thigh-back" class="clickable-region" d="M 191 340 L 195 430 L 197 500 L 190 500 L 186 430 L 182 340 Z"/>
    <path id="left-hamstring" class="clickable-region" d="M 114 345 L 112 435 L 110 505 L 117 505 L 119 435 L 121 345 Z"/>
    <path id="right-hamstring" class="clickable-region" d="M 186 345 L 188 435 L 190 505 L 183 505 L 181 435 L 179 345 Z"/>
    <path id="left-outer-calf-back" class="clickable-region" d="M 103 520 L 101 630 L 97 720 L 104 720 L 108 630 L 110 520 Z"/>
    <path id="right-outer-calf-back" class="clickable-region" d="M 197 520 L 199 630 L 203 720 L 196 720 L 192 630 L 190 520 Z"/>
    <path id="left-inner-calf-back" class="clickable-region" d="M 110 520 L 112 630 L 114 720 L 107 720 L 105 630 L 103 520 Z"/>
    <path id="right-inner-calf-back" class="clickable-region" d="M 190 520 L 188 630 L 186 720 L 193 720 L 195 630 L 197 520 Z"/>
    <rect id="left-ankle-back-outer" class="clickable-region" x="95" y="740" width="10" height="25"/>
    <rect id="right-ankle-back-outer" class="clickable-region" x="195" y="740" width="10" height="25"/>
    <rect id="left-ankle-back-inner" class="clickable-region" x="105" y="740" width="10" height="25"/>
    <rect id="right-ankle-back-inner" class="clickable-region" x="185" y="740" width="10" height="25"/>
  </g>
</svg>
