<svg viewBox="0 0 300 800" xmlns="http://www.w3.org/2000/svg">
  <defs>
    <style>
      .body-outline { fill: #1a1a1a; stroke: #404040; stroke-width: 0.5; }
      .clickable-region { fill: transparent; stroke: none; cursor: pointer; transition: all 0.2s; }
      .clickable-region:hover { fill: rgba(139, 0, 0, 0.3); stroke: #8B0000; stroke-width: 1; }
      .clickable-region.selected { fill: rgba(139, 0, 0, 0.5); stroke: #8B0000; stroke-width: 1.5; }
    </style>
  </defs>

  <!-- Realistic Female Body Outline - Front View -->
  <g class="body-outline">
    <!-- Head -->
    <ellipse cx="150" cy="50" rx="26" ry="33"/>

    <!-- Neck (slimmer) -->
    <path d="M 133 81 L 131 105 L 169 105 L 167 81 Z"/>

    <!-- Torso with feminine curves -->
    <path d="
      M 100 105
      Q 93 115, 90 130
      L 87 160
      Q 85 185, 87 200
      L 90 230
      Q 92 250, 97 265
      L 102 285
      Q 107 305, 112 325
      L 188 325
      Q 193 305, 198 285
      L 203 265
      Q 208 250, 210 230
      L 213 200
      Q 215 185, 213 160
      L 210 130
      Q 207 115, 200 105
      Z
    "/>

    <!-- Left Arm (slimmer) -->
    <path d="
      M 100 115
      L 78 125
      Q 67 135, 62 155
      L 57 195
      Q 55 220, 54 245
      L 52 285
      Q 51 310, 50 330
      L 49 355
      Q 48 370, 47 385
      L 45 405
      L 53 408
      L 55 385
      Q 56 370, 57 355
      L 59 330
      Q 60 310, 61 285
      L 63 245
      Q 64 220, 66 195
      L 71 155
      Q 76 135, 88 125
      Z
    "/>

    <!-- Right Arm (slimmer) -->
    <path d="
      M 200 115
      L 222 125
      Q 233 135, 238 155
      L 243 195
      Q 245 220, 246 245
      L 248 285
      Q 249 310, 250 330
      L 251 355
      Q 252 370, 253 385
      L 255 405
      L 247 408
      L 245 385
      Q 244 370, 243 355
      L 241 330
      Q 240 310, 239 285
      L 237 245
      Q 236 220, 234 195
      L 229 155
      Q 224 135, 212 125
      Z
    "/>

    <!-- Left Leg -->
    <path d="
      M 112 325
      L 109 380
      Q 107 420, 105 460
      L 103 520
      Q 102 560, 101 600
      L 99 660
      Q 98 700, 97 740
      L 95 770
      L 102 773
      L 109 773
      L 111 770
      Q 112 700, 113 660
      L 115 600
      Q 116 560, 117 520
      L 119 460
      Q 121 420, 123 380
      L 126 325
      Z
    "/>

    <!-- Right Leg -->
    <path d="
      M 188 325
      L 191 380
      Q 193 420, 195 460
      L 197 520
      Q 198 560, 199 600
      L 201 660
      Q 202 700, 203 740
      L 205 770
      L 198 773
      L 191 773
      L 189 770
      Q 188 700, 187 660
      L 185 600
      Q 184 560, 183 520
      L 181 460
      Q 179 420, 177 380
      L 174 325
      Z
    "/>
  </g>

  <!-- Clickable Placement Regions -->
  <g class="clickable-regions">
    <!-- Neck Front -->
    <path id="neck-front" class="clickable-region" d="M 133 81 L 131 105 L 169 105 L 167 81 Z"/>

    <!-- Upper Chest -->
    <rect id="upper-chest" class="clickable-region" x="115" y="105" width="70" height="25"/>

    <!-- Sternum/Center Chest -->
    <rect id="sternum" class="clickable-region" x="138" y="115" width="24" height="50"/>

    <!-- Left Upper Chest -->
    <path id="left-upper-chest" class="clickable-region" d="M 100 115 Q 90 125, 90 140 L 90 160 Q 93 165, 105 163 L 135 160 Q 140 155, 140 140 L 140 120 Q 125 115, 110 115 Z"/>

    <!-- Right Upper Chest -->
    <path id="right-upper-chest" class="clickable-region" d="M 200 115 Q 210 125, 210 140 L 210 160 Q 207 165, 195 163 L 165 160 Q 160 155, 160 140 L 160 120 Q 175 115, 190 115 Z"/>

    <!-- Lower Chest -->
    <rect id="lower-chest" class="clickable-region" x="115" y="165" width="70" height="25"/>

    <!-- Left Outer Bicep -->
    <path id="left-outer-bicep" class="clickable-region" d="M 78 125 L 67 145 L 63 175 L 70 175 L 74 145 L 86 125 Z"/>

    <!-- Right Outer Bicep -->
    <path id="right-outer-bicep" class="clickable-region" d="M 222 125 L 233 145 L 237 175 L 230 175 L 226 145 L 214 125 Z"/>

    <!-- Left Inner Bicep -->
    <path id="left-inner-bicep" class="clickable-region" d="M 86 125 L 92 145 L 94 175 L 87 175 L 82 145 L 77 125 Z"/>

    <!-- Right Inner Bicep -->
    <path id="right-inner-bicep" class="clickable-region" d="M 214 125 L 208 145 L 206 175 L 213 175 L 218 145 L 223 125 Z"/>

    <!-- Left Outer Forearm -->
    <path id="left-outer-forearm" class="clickable-region" d="M 62 185 L 57 235 L 54 285 L 61 285 L 64 235 L 69 185 Z"/>

    <!-- Right Outer Forearm -->
    <path id="right-outer-forearm" class="clickable-region" d="M 238 185 L 243 235 L 246 285 L 239 285 L 236 235 L 231 185 Z"/>

    <!-- Left Inner Forearm -->
    <path id="left-inner-forearm" class="clickable-region" d="M 69 185 L 74 235 L 77 285 L 70 285 L 67 235 L 64 185 Z"/>

    <!-- Right Inner Forearm -->
    <path id="right-inner-forearm" class="clickable-region" d="M 231 185 L 226 235 L 223 285 L 230 285 L 233 235 L 236 185 Z"/>

    <!-- Left Wrist Outer -->
    <rect id="left-wrist-outer" class="clickable-region" x="50" y="295" width="10" height="30"/>

    <!-- Right Wrist Outer -->
    <rect id="right-wrist-outer" class="clickable-region" x="240" y="295" width="10" height="30"/>

    <!-- Left Wrist Inner -->
    <rect id="left-wrist-inner" class="clickable-region" x="60" y="295" width="10" height="30"/>

    <!-- Right Wrist Inner -->
    <rect id="right-wrist-inner" class="clickable-region" x="230" y="295" width="10" height="30"/>

    <!-- Left Hand -->
    <path id="left-hand" class="clickable-region" d="M 45 335 L 45 395 L 63 395 L 63 335 Z"/>

    <!-- Right Hand -->
    <path id="right-hand" class="clickable-region" d="M 237 335 L 237 395 L 255 395 L 255 335 Z"/>

    <!-- Left Ribs -->
    <rect id="left-ribs" class="clickable-region" x="87" y="195" width="25" height="55"/>

    <!-- Right Ribs -->
    <rect id="right-ribs" class="clickable-region" x="188" y="195" width="25" height="55"/>

    <!-- Left Hip -->
    <rect id="left-hip" class="clickable-region" x="92" y="260" width="25" height="55"/>

    <!-- Right Hip -->
    <rect id="right-hip" class="clickable-region" x="183" y="260" width="25" height="55"/>

    <!-- Left Outer Thigh -->
    <path id="left-outer-thigh" class="clickable-region" d="M 109 330 L 105 420 L 103 490 L 110 490 L 114 420 L 118 330 Z"/>

    <!-- Right Outer Thigh -->
    <path id="right-outer-thigh" class="clickable-region" d="M 191 330 L 195 420 L 197 490 L 190 490 L 186 420 L 182 330 Z"/>

    <!-- Left Inner Thigh -->
    <path id="left-inner-thigh" class="clickable-region" d="M 118 330 L 122 420 L 124 490 L 117 490 L 113 420 L 109 330 Z"/>

    <!-- Right Inner Thigh -->
    <path id="right-inner-thigh" class="clickable-region" d="M 182 330 L 178 420 L 176 490 L 183 490 L 187 420 L 191 330 Z"/>

    <!-- Left Front Thigh -->
    <path id="left-front-thigh" class="clickable-region" d="M 112 340 L 110 430 L 108 500 L 115 500 L 117 430 L 119 340 Z"/>

    <!-- Right Front Thigh -->
    <path id="right-front-thigh" class="clickable-region" d="M 188 340 L 190 430 L 192 500 L 185 500 L 183 430 L 181 340 Z"/>

    <!-- Left Outer Calf -->
    <path id="left-outer-calf" class="clickable-region" d="M 103 520 L 101 630 L 97 720 L 104 720 L 108 630 L 110 520 Z"/>

    <!-- Right Outer Calf -->
    <path id="right-outer-calf" class="clickable-region" d="M 197 520 L 199 630 L 203 720 L 196 720 L 192 630 L 190 520 Z"/>

    <!-- Left Inner Calf -->
    <path id="left-inner-calf" class="clickable-region" d="M 110 520 L 112 630 L 114 720 L 107 720 L 105 630 L 103 520 Z"/>

    <!-- Right Inner Calf -->
    <path id="right-inner-calf" class="clickable-region" d="M 190 520 L 188 630 L 186 720 L 193 720 L 195 630 L 197 520 Z"/>

    <!-- Left Ankle Outer -->
    <rect id="left-ankle-outer" class="clickable-region" x="95" y="740" width="10" height="25"/>

    <!-- Right Ankle Outer -->
    <rect id="right-ankle-outer" class="clickable-region" x="195" y="740" width="10" height="25"/>

    <!-- Left Ankle Inner -->
    <rect id="left-ankle-inner" class="clickable-region" x="105" y="740" width="10" height="25"/>

    <!-- Right Ankle Inner -->
    <rect id="right-ankle-inner" class="clickable-region" x="185" y="740" width="10" height="25"/>
  </g>
</svg>
